<svg width="598" height="167" viewBox="0 0 598 167" fill="none" xmlns="http://www.w3.org/2000/svg">
<path d="M85.0262 0.00523125C38.8262 -0.494769 1.1262 34.9052 0.0262022 81.4052C-1.1738 130.705 39.0262 167.405 83.1262 166.605C129.026 166.905 166.726 130.105 166.926 84.6052C167.326 38.4052 130.426 0.505231 85.0262 0.00523125ZM114.426 94.6052C114.226 95.3052 114.026 96.1052 113.826 96.8052C113.026 99.5052 112.026 101.905 110.726 104.205C107.126 110.405 102.826 114.805 97.7262 117.605C97.4262 117.805 97.1262 117.905 96.9262 118.105C91.4262 121.005 83.0262 122.505 71.8262 122.505H51.3262V44.2052H71.8262C83.0262 44.2052 91.4262 45.7052 96.9262 48.6052C97.3262 48.8052 97.7262 49.0052 98.0262 49.2052C103.026 52.0052 107.226 56.4052 110.726 62.5052C112.126 65.0052 113.226 67.6052 114.026 70.5052C114.126 71.0052 114.326 71.5052 114.426 72.1052C115.226 75.6052 115.626 79.4052 115.726 83.5052C115.626 87.4052 115.226 91.2052 114.426 94.6052Z" fill="#FBAA19"/>
<path d="M100.826 83.3052C100.526 99.7052 91.5262 107.905 73.9262 107.905H66.1262V58.8052H73.9262C91.6262 58.7052 100.526 66.9052 100.826 83.3052Z" fill="#FBAA19"/>
<path d="M215.126 43.4052L240.026 109.205L264.626 43.4052H278.226L245.526 125.505H234.426L201.326 43.4052H215.126Z" fill="white"/>
<path d="M313.926 126.605C309.226 126.605 304.926 125.805 301.126 124.105C297.226 122.405 294.026 120.205 291.226 117.305C288.526 114.405 286.326 111.105 284.826 107.405C283.326 103.605 282.526 99.6052 282.526 95.4052C282.526 91.2052 283.326 87.1052 284.826 83.3052C286.326 79.5052 288.426 76.1052 291.226 73.2052C293.926 70.3052 297.226 68.0052 301.126 66.4052C305.026 64.7052 309.326 63.9052 314.026 63.9052C318.726 63.9052 323.026 64.7052 326.826 66.4052C330.626 68.1052 333.926 70.4052 336.626 73.2052C339.326 76.0052 341.426 79.3052 342.826 83.0052C344.226 86.7052 344.926 90.6052 344.926 94.7052C344.926 95.6052 344.926 96.5052 344.826 97.3052C344.726 98.1052 344.626 98.8052 344.626 99.3052H296.226C296.426 102.005 297.126 104.405 298.126 106.605C299.126 108.805 300.526 110.605 302.126 112.205C303.826 113.805 305.626 115.005 307.826 115.805C309.926 116.605 312.126 117.105 314.426 117.105C316.126 117.105 317.826 116.905 319.426 116.505C321.126 116.105 322.626 115.505 324.026 114.705C325.426 113.905 326.626 112.905 327.726 111.805C328.826 110.605 329.626 109.405 330.226 108.005L341.126 111.105C339.026 115.605 335.626 119.405 330.826 122.305C325.926 125.205 320.326 126.605 313.926 126.605ZM332.326 90.7052C332.126 88.2052 331.426 85.8052 330.426 83.6052C329.426 81.4052 328.026 79.6052 326.426 78.1052C324.826 76.6052 322.926 75.4052 320.726 74.6052C318.526 73.8052 316.326 73.3052 313.926 73.3052C311.526 73.3052 309.326 73.7052 307.126 74.6052C305.026 75.4052 303.126 76.6052 301.526 78.1052C299.926 79.6052 298.626 81.4052 297.626 83.6052C296.626 85.8052 296.026 88.1052 295.826 90.7052H332.326Z" fill="white"/>
<path d="M358.926 125.505V81.9052H350.826V72.1052H358.926V64.1052C358.926 56.6052 360.626 50.7052 364.126 46.4052C367.626 42.1052 372.326 39.9052 378.226 39.9052C380.726 39.9052 383.126 40.2052 385.526 40.9052C387.926 41.6052 390.126 42.5052 392.226 43.6052L389.426 53.1052C388.326 52.4052 387.026 51.8052 385.426 51.4052C383.826 50.9052 382.326 50.7052 380.826 50.7052C377.826 50.7052 375.526 51.8052 373.926 54.1052C372.326 56.3052 371.526 59.6052 371.526 63.8052V72.1052H386.926V81.9052H371.526V125.505H358.926Z" fill="white"/>
<path d="M399.526 125.505V43.4052H428.626C435.226 43.4052 441.026 44.5052 446.026 46.6052C451.026 48.8052 455.126 51.7052 458.526 55.4052C461.926 59.1052 464.426 63.4052 466.126 68.4052C467.826 73.4052 468.626 78.7052 468.626 84.3052C468.626 90.5052 467.726 96.2052 465.826 101.205C463.926 106.205 461.226 110.605 457.826 114.105C454.326 117.705 450.126 120.505 445.226 122.405C440.326 124.405 434.826 125.305 428.726 125.305H399.526V125.505ZM455.426 84.3052C455.426 80.0052 454.826 76.0052 453.626 72.4052C452.426 68.8052 450.726 65.7052 448.326 63.1052C446.026 60.5052 443.226 58.5052 439.926 57.0052C436.626 55.5052 432.826 54.8052 428.626 54.8052H412.426V114.005H428.626C432.926 114.005 436.726 113.205 440.126 111.705C443.526 110.205 446.326 108.105 448.526 105.505C450.826 102.805 452.526 99.7052 453.626 96.1052C454.826 92.5052 455.426 88.6052 455.426 84.3052Z" fill="white"/>
<path d="M508.226 126.605C503.526 126.605 499.226 125.805 495.426 124.105C491.526 122.405 488.326 120.205 485.526 117.305C482.826 114.405 480.626 111.105 479.126 107.405C477.626 103.605 476.826 99.6052 476.826 95.4052C476.826 91.2052 477.626 87.1052 479.126 83.3052C480.626 79.5052 482.726 76.1052 485.526 73.2052C488.226 70.3052 491.526 68.0052 495.426 66.4052C499.326 64.7052 503.626 63.9052 508.326 63.9052C513.026 63.9052 517.326 64.7052 521.126 66.4052C524.926 68.1052 528.226 70.4052 530.926 73.2052C533.626 76.0052 535.726 79.3052 537.126 83.0052C538.526 86.7052 539.226 90.6052 539.226 94.7052C539.226 95.6052 539.226 96.5052 539.126 97.3052C539.026 98.1052 538.926 98.8052 538.926 99.3052H490.526C490.726 102.005 491.426 104.405 492.426 106.605C493.426 108.805 494.826 110.605 496.426 112.205C498.126 113.805 499.926 115.005 502.126 115.805C504.226 116.605 506.426 117.105 508.726 117.105C510.426 117.105 512.126 116.905 513.726 116.505C515.426 116.105 516.926 115.505 518.326 114.705C519.726 113.905 520.926 112.905 522.026 111.805C523.126 110.605 523.926 109.405 524.526 108.005L535.426 111.105C533.326 115.605 529.926 119.405 525.126 122.305C520.226 125.205 514.626 126.605 508.226 126.605ZM526.626 90.7052C526.426 88.2052 525.726 85.8052 524.726 83.6052C523.726 81.4052 522.326 79.6052 520.726 78.1052C519.126 76.6052 517.226 75.4052 515.026 74.6052C512.826 73.8052 510.626 73.3052 508.226 73.3052C505.826 73.3052 503.626 73.7052 501.426 74.6052C499.326 75.4052 497.426 76.6052 495.826 78.1052C494.226 79.6052 492.926 81.4052 491.926 83.6052C490.926 85.8052 490.326 88.1052 490.126 90.7052H526.626Z" fill="white"/>
<path d="M553.226 81.9052H545.126V72.1052H553.226V64.1052C553.226 60.9052 553.726 57.9052 554.726 55.0052C555.726 52.1052 557.226 49.5052 559.226 47.3052C561.226 45.1052 563.626 43.3052 566.526 41.9052C569.426 40.6052 572.826 39.9052 576.726 39.9052C581.026 39.9052 584.926 40.6052 588.326 41.9052C591.726 43.2052 594.726 44.8052 597.326 46.6052L592.026 56.1052C590.226 54.6052 588.126 53.3052 585.526 52.3052C583.026 51.3052 580.326 50.8052 577.426 50.8052C575.426 50.8052 573.726 51.2052 572.326 51.9052C570.926 52.6052 569.726 53.6052 568.826 54.8052C567.926 56.0052 567.226 57.4052 566.726 59.0052C566.226 60.5052 566.026 62.1052 566.026 63.7052V72.0052H597.726V125.405H585.026V81.8052H566.026V125.405H553.326L553.226 81.9052Z" fill="white"/>
</svg>
