<svg width="31" height="30" viewBox="0 0 31 30" fill="none" xmlns="http://www.w3.org/2000/svg">
<path d="M23.4687 7.5V19.6875C23.4687 19.8118 23.4194 19.931 23.3314 20.019C23.2435 20.1069 23.1243 20.1562 23 20.1562C22.8757 20.1562 22.7564 20.1069 22.6685 20.019C22.5806 19.931 22.5312 19.8118 22.5312 19.6875V8.63203L8.33163 22.8316C8.24367 22.9196 8.12438 22.969 7.99999 22.969C7.8756 22.969 7.7563 22.9196 7.66835 22.8316C7.58039 22.7437 7.53098 22.6244 7.53098 22.5C7.53098 22.3756 7.58039 22.2563 7.66835 22.1684L21.868 7.96875H10.8125C10.6882 7.96875 10.5689 7.91936 10.481 7.83146C10.3931 7.74355 10.3437 7.62432 10.3437 7.5C10.3437 7.37568 10.3931 7.25645 10.481 7.16854C10.5689 7.08064 10.6882 7.03125 10.8125 7.03125H23C23.1243 7.03125 23.2435 7.08064 23.3314 7.16854C23.4194 7.25645 23.4687 7.37568 23.4687 7.5Z" fill="#00C4EE"/>
</svg>
