<svg width="60" height="60" viewBox="0 0 60 60" fill="none" xmlns="http://www.w3.org/2000/svg">
<g id="basil:arrow-right-outline">
<rect x="0.25" y="0.25" width="59.5" height="59.5" rx="9.75" stroke="white" stroke-width="0.5"/>
<path id="Vector" d="M33.675 21.325C33.3438 20.9695 33.1635 20.4994 33.1721 20.0137C33.1806 19.5279 33.3774 19.0645 33.7209 18.7209C34.0645 18.3774 34.5279 18.1806 35.0137 18.172C35.4994 18.1635 35.9696 18.3438 36.325 18.675L46.325 28.675C46.6761 29.0265 46.8733 29.5031 46.8733 30C46.8733 30.4969 46.6761 30.9734 46.325 31.325L36.325 41.325C36.1533 41.5092 35.9463 41.657 35.7163 41.7594C35.4863 41.8619 35.2381 41.917 34.9863 41.9215C34.7345 41.9259 34.4845 41.8796 34.251 41.7853C34.0175 41.691 33.8055 41.5506 33.6274 41.3726C33.4494 41.1945 33.309 40.9824 33.2147 40.749C33.1204 40.5155 33.0741 40.2654 33.0785 40.0137C33.083 39.7619 33.1381 39.5136 33.2405 39.2836C33.343 39.0536 33.4908 38.8466 33.675 38.675L40.475 31.875H16.25C15.7527 31.875 15.2758 31.6774 14.9242 31.3258C14.5725 30.9742 14.375 30.4973 14.375 30C14.375 29.5027 14.5725 29.0258 14.9242 28.6742C15.2758 28.3225 15.7527 28.125 16.25 28.125H40.475L33.675 21.325Z" fill="white"/>
</g>
</svg>
