<svg width="65" height="65" viewBox="0 0 65 65" fill="none" xmlns="http://www.w3.org/2000/svg">
<g id="ph:clock-bold">
<path id="Vector" d="M32.5 5.07812C27.0765 5.07813 21.7747 6.68639 17.2652 9.69954C12.7557 12.7127 9.241 16.9954 7.1655 22.0061C5.09001 27.0168 4.54696 32.5304 5.60504 37.8497C6.66312 43.1691 9.2748 48.0552 13.1098 51.8902C16.9448 55.7252 21.8309 58.3369 27.1503 59.395C32.4696 60.453 37.9832 59.91 42.9939 57.8345C48.0046 55.759 52.2873 52.2443 55.3005 47.7348C58.3136 43.2253 59.9219 37.9235 59.9219 32.5C59.9138 25.2297 57.0222 18.2596 51.8813 13.1187C46.7404 7.97786 39.7703 5.08619 32.5 5.07812ZM32.5 53.8281C28.2817 53.8281 24.1581 52.5773 20.6507 50.2337C17.1433 47.8901 14.4097 44.5591 12.7954 40.6619C11.1811 36.7647 10.7588 32.4763 11.5817 28.3391C12.4047 24.2018 14.436 20.4015 17.4187 17.4187C20.4015 14.4359 24.2018 12.4046 28.3391 11.5817C32.4764 10.7587 36.7647 11.1811 40.6619 12.7954C44.5591 14.4097 47.8901 17.1433 50.2337 20.6507C52.5773 24.1581 53.8281 28.2817 53.8281 32.5C53.8221 38.1547 51.5731 43.5761 47.5746 47.5746C43.5761 51.5731 38.1547 53.8221 32.5 53.8281ZM49.7656 32.5C49.7656 33.3081 49.4446 34.0831 48.8732 34.6545C48.3018 35.2259 47.5268 35.5469 46.7188 35.5469H32.5C31.6919 35.5469 30.9169 35.2259 30.3455 34.6545C29.7741 34.0831 29.4531 33.3081 29.4531 32.5V18.2812C29.4531 17.4732 29.7741 16.6982 30.3455 16.1268C30.9169 15.5554 31.6919 15.2344 32.5 15.2344C33.3081 15.2344 34.0831 15.5554 34.6545 16.1268C35.2259 16.6982 35.5469 17.4732 35.5469 18.2812V29.4531H46.7188C47.5268 29.4531 48.3018 29.7741 48.8732 30.3455C49.4446 30.9169 49.7656 31.6919 49.7656 32.5Z" fill="white"/>
</g>
</svg>
