<svg width="65" height="65" viewBox="0 0 65 65" fill="none" xmlns="http://www.w3.org/2000/svg">
<g id="bi:magic">
<path id="Vector" d="M38.5938 10.855C38.5938 11.3937 38.8078 11.9104 39.1887 12.2913C39.5696 12.6722 40.0863 12.8862 40.625 12.8862C41.1637 12.8862 41.6804 12.6722 42.0613 12.2913C42.4423 11.9104 42.6563 11.3937 42.6563 10.855V3.42468C42.6563 2.88596 42.4423 2.36931 42.0613 1.98837C41.6804 1.60744 41.1637 1.39343 40.625 1.39343C40.0863 1.39343 39.5696 1.60744 39.1887 1.98837C38.8078 2.36931 38.5938 2.88596 38.5938 3.42468V10.855ZM56.875 10.9972C57.245 10.6141 57.4498 10.101 57.4451 9.5684C57.4405 9.03581 57.2269 8.52635 56.8503 8.14974C56.4737 7.77313 55.9642 7.5595 55.4316 7.55488C54.899 7.55025 54.3859 7.75499 54.0028 8.125L48.75 13.3778C48.556 13.5652 48.4013 13.7893 48.2948 14.0371C48.1883 14.285 48.1323 14.5515 48.13 14.8212C48.1276 15.0909 48.179 15.3584 48.2812 15.608C48.3833 15.8577 48.5341 16.0845 48.7248 16.2752C48.9156 16.4659 49.1423 16.6167 49.392 16.7189C49.6416 16.821 49.9091 16.8724 50.1788 16.87C50.4485 16.8677 50.715 16.8117 50.9629 16.7052C51.2107 16.5987 51.4348 16.444 51.6222 16.25L56.875 10.9972ZM29.6278 16.25C29.8152 16.444 30.0393 16.5987 30.2872 16.7052C30.535 16.8117 30.8015 16.8677 31.0712 16.87C31.3409 16.8724 31.6084 16.821 31.858 16.7189C32.1077 16.6167 32.3345 16.4659 32.5252 16.2752C32.7159 16.0845 32.8667 15.8577 32.9689 15.608C33.071 15.3584 33.1224 15.0909 33.1201 14.8212C33.1177 14.5515 33.0617 14.285 32.9552 14.0371C32.8488 13.7893 32.694 13.5652 32.5 13.3778L27.2472 8.125C26.8641 7.75499 26.351 7.55025 25.8184 7.55488C25.2858 7.5595 24.7764 7.77313 24.3998 8.14974C24.0231 8.52635 23.8095 9.03581 23.8049 9.5684C23.8003 10.101 24.005 10.6141 24.375 10.9972L29.6278 16.25ZM27.105 26.4062C27.6437 26.4062 28.1604 26.1922 28.5413 25.8113C28.9223 25.4304 29.1363 24.9137 29.1363 24.375C29.1363 23.8363 28.9223 23.3196 28.5413 22.9387C28.1604 22.5578 27.6437 22.3437 27.105 22.3437H19.6747C19.136 22.3437 18.6193 22.5578 18.2384 22.9387C17.8575 23.3196 17.6434 23.8363 17.6434 24.375C17.6434 24.9137 17.8575 25.4304 18.2384 25.8113C18.6193 26.1922 19.136 26.4062 19.6747 26.4062H27.105ZM61.5753 26.4062C62.114 26.4062 62.6307 26.1922 63.0116 25.8113C63.3926 25.4304 63.6066 24.9137 63.6066 24.375C63.6066 23.8363 63.3926 23.3196 63.0116 22.9387C62.6307 22.5578 62.114 22.3437 61.5753 22.3437H54.145C53.6063 22.3437 53.0896 22.5578 52.7087 22.9387C52.3278 23.3196 52.1138 23.8363 52.1138 24.375C52.1138 24.9137 52.3278 25.4304 52.7087 25.8113C53.0896 26.1922 53.6063 26.4062 54.145 26.4062H61.5753ZM54.0028 40.625C54.1902 40.819 54.4143 40.9737 54.6622 41.0802C54.91 41.1867 55.1765 41.2427 55.4462 41.245C55.7159 41.2474 55.9834 41.196 56.233 41.0938C56.4827 40.9917 56.7095 40.8409 56.9002 40.6502C57.0909 40.4595 57.2417 40.2327 57.3439 39.983C57.446 39.7334 57.4974 39.4659 57.495 39.1962C57.4927 38.9265 57.4367 38.66 57.3302 38.4121C57.2238 38.1643 57.069 37.9402 56.875 37.7528L51.6222 32.5C51.4348 32.306 51.2107 32.1512 50.9629 32.0448C50.715 31.9383 50.4485 31.8823 50.1788 31.88C49.9091 31.8776 49.6416 31.929 49.392 32.0311C49.1423 32.1333 48.9156 32.2841 48.7248 32.4748C48.5341 32.6655 48.3833 32.8923 48.2812 33.142C48.179 33.3916 48.1276 33.6591 48.13 33.9288C48.1323 34.1985 48.1883 34.465 48.2948 34.7128C48.4013 34.9607 48.556 35.1848 48.75 35.3722L54.0028 40.625ZM38.5938 45.3253C38.5938 45.864 38.8078 46.3807 39.1887 46.7616C39.5696 47.1426 40.0863 47.3566 40.625 47.3566C41.1637 47.3566 41.6804 47.1426 42.0613 46.7616C42.4423 46.3807 42.6563 45.864 42.6563 45.3253V37.895C42.6563 37.3563 42.4423 36.8396 42.0613 36.4587C41.6804 36.0777 41.1637 35.8637 40.625 35.8637C40.0863 35.8637 39.5696 36.0777 39.1887 36.4587C38.8078 36.8396 38.5938 37.3563 38.5938 37.895V45.3253ZM46.1256 24.6187C46.5052 24.238 46.7183 23.7223 46.7183 23.1847C46.7183 22.6471 46.5052 22.1314 46.1256 21.7506L43.2494 18.8744C42.8685 18.4936 42.3519 18.2796 41.8133 18.2796C41.2747 18.2796 40.7581 18.4936 40.3772 18.8744L35.1244 24.1312C34.7436 24.5122 34.5297 25.0287 34.5297 25.5673C34.5297 26.106 34.7436 26.6225 35.1244 27.0034L38.0006 29.8797C38.3815 30.2605 38.8981 30.4744 39.4367 30.4744C39.9753 30.4744 40.4919 30.2605 40.8728 29.8797L46.1256 24.6269V24.6187ZM33.9381 36.8062C34.3177 36.4255 34.5308 35.9098 34.5308 35.3722C34.5308 34.8346 34.3177 34.3189 33.9381 33.9381L31.0619 31.0619C30.681 30.6811 30.1644 30.4671 29.6258 30.4671C29.0872 30.4671 28.5706 30.6811 28.1897 31.0619L2.62439 56.6312C2.24359 57.0122 2.02966 57.5287 2.02966 58.0673C2.02966 58.606 2.24359 59.1225 2.62439 59.5034L5.50064 62.3797C5.88155 62.7605 6.39811 62.9744 6.93673 62.9744C7.47534 62.9744 7.99191 62.7605 8.37282 62.3797L33.9381 36.8062Z" fill="white"/>
</g>
</svg>
