<svg width="65" height="65" viewBox="0 0 65 65" fill="none" xmlns="http://www.w3.org/2000/svg">
<g id="mdi:magnify">
<path id="Vector" d="M23.4722 0C29.6974 0 35.6677 2.47296 40.0696 6.87485C44.4715 11.2767 46.9444 17.247 46.9444 23.4722C46.9444 29.2861 44.8139 34.6306 41.3111 38.7472L42.2861 39.7222H45.1389L63.1944 57.7778L57.7778 63.1944L39.7222 45.1389V42.2861L38.7472 41.3111C34.4881 44.9467 29.072 46.9441 23.4722 46.9444C17.247 46.9444 11.2767 44.4715 6.87485 40.0696C2.47296 35.6677 0 29.6974 0 23.4722C0 17.247 2.47296 11.2767 6.87485 6.87485C11.2767 2.47296 17.247 0 23.4722 0ZM23.4722 7.22222C14.4444 7.22222 7.22222 14.4444 7.22222 23.4722C7.22222 32.5 14.4444 39.7222 23.4722 39.7222C32.5 39.7222 39.7222 32.5 39.7222 23.4722C39.7222 14.4444 32.5 7.22222 23.4722 7.22222Z" fill="white"/>
</g>
</svg>
