<svg width="65" height="65" viewBox="0 0 65 65" fill="none" xmlns="http://www.w3.org/2000/svg">
<g id="eos-icons:project-outlined">
<path id="Vector" d="M32.5 18.9583C33.9958 18.9583 35.2084 17.7457 35.2084 16.25C35.2084 14.7542 33.9958 13.5416 32.5 13.5416C31.0042 13.5416 29.7917 14.7542 29.7917 16.25C29.7917 17.7457 31.0042 18.9583 32.5 18.9583Z" fill="white"/>
<path id="Vector_2" d="M16.25 46.0416H48.75V51.4583H16.25V46.0416ZM27.0833 32.0395L34.645 39.6066L45.2942 28.9493L48.75 32.5V21.6666H37.9167L41.4646 25.1197L34.6423 31.942L27.0833 24.375L16.25 35.2083L20.0796 39.0379L27.0833 32.0395Z" fill="white"/>
<path id="Vector_3" d="M51.4584 8.12499H42.5263C42.2603 7.72454 41.971 7.34019 41.6596 6.97395L41.6325 6.94145C39.6426 4.6238 36.843 3.15326 33.8054 2.8302C32.9429 2.66597 32.0571 2.66597 31.1946 2.8302C28.157 3.15326 25.3574 4.6238 23.3675 6.94145L23.3404 6.97395C23.0292 7.33932 22.7398 7.72276 22.4738 8.12228L13.5417 8.12499C11.3875 8.12714 9.32209 8.98386 7.79882 10.5071C6.27555 12.0304 5.41884 14.0958 5.41669 16.25V54.1667C5.41884 56.3209 6.27555 58.3863 7.79882 59.9095C9.32209 61.4328 11.3875 62.2895 13.5417 62.2917H51.4584C53.6126 62.2895 55.678 61.4328 57.2012 59.9095C58.7245 58.3863 59.5812 56.3209 59.5834 54.1667V16.25C59.5812 14.0958 58.7245 12.0304 57.2012 10.5071C55.678 8.98386 53.6126 8.12714 51.4584 8.12499ZM54.1667 54.1667C54.1667 54.8849 53.8814 55.5738 53.3734 56.0817C52.8655 56.5896 52.1767 56.875 51.4584 56.875H13.5417C12.8236 56.8743 12.1352 56.5887 11.6274 56.0809C11.1196 55.5732 10.8341 54.8847 10.8334 54.1667V16.25C10.8341 15.5319 11.1196 14.8435 11.6274 14.3357C12.1352 13.8279 12.8236 13.5424 13.5417 13.5417H25.8646C26.1754 12.0111 27.0058 10.635 28.2151 9.64656C29.4244 8.65815 30.9382 8.1182 32.5 8.1182C34.0619 8.1182 35.5757 8.65815 36.785 9.64656C37.9942 10.635 38.8246 12.0111 39.1354 13.5417H51.4584C52.1764 13.5424 52.8649 13.8279 53.3726 14.3357C53.8804 14.8435 54.166 15.5319 54.1667 16.25V54.1667Z" fill="white"/>
</g>
</svg>
