<svg width="15" height="15" viewBox="0 0 15 15" fill="none" xmlns="http://www.w3.org/2000/svg">
<g clip-path="url(#clip0_19_296)">
<path fill-rule="evenodd" clip-rule="evenodd" d="M0 7.5C0 5.51088 0.790176 3.60322 2.1967 2.1967C3.60322 0.790176 5.51088 0 7.5 0C9.48912 0 11.3968 0.790176 12.8033 2.1967C14.2098 3.60322 15 5.51088 15 7.5C15 9.48912 14.2098 11.3968 12.8033 12.8033C11.3968 14.2098 9.48912 15 7.5 15C5.51088 15 3.60322 14.2098 2.1967 12.8033C0.790176 11.3968 0 9.48912 0 7.5ZM7.072 10.71L11.39 5.312L10.61 4.688L6.928 9.289L4.32 7.116L3.68 7.884L7.072 10.71Z" fill="url(#paint0_linear_19_296)"/>
</g>
<defs>
<linearGradient id="paint0_linear_19_296" x1="6.07143" y1="7.77084" x2="-0.50155" y2="7.7257" gradientUnits="userSpaceOnUse">
<stop stop-color="#3B4CE8"/>
<stop offset="0.493353" stop-color="#5090B5" stop-opacity="0.892024"/>
<stop offset="1" stop-color="#00C4EE" stop-opacity="0.8"/>
</linearGradient>
<clipPath id="clip0_19_296">
<rect width="15" height="15" fill="white"/>
</clipPath>
</defs>
</svg>
